<?xml version="1.0" encoding="utf-8"?>
<!-- Generator: Adobe Illustrator 26.2.1, SVG Export Plug-In . SVG Version: 6.00 Build 0)  -->
<svg version="1.1" id="Layer_1" xmlns="http://www.w3.org/2000/svg" xmlns:xlink="http://www.w3.org/1999/xlink" x="0px" y="0px"
	 viewBox="0 0 48 48" style="enable-background:new 0 0 48 48;" xml:space="preserve">
<style type="text/css">
	.st0{fill:#2E333F;}
	.st1{fill:#FEFDFD;}
	.st2{fill:none;stroke:#2E333F;stroke-width:2.3429;stroke-linecap:round;stroke-linejoin:round;}
</style>
<path class="st0" d="M24,0L24,0C10.7,0,0,10.7,0,24l0,0c0,13.3,10.7,24,24,24l0,0c13.3,0,24-10.7,24-24l0,0C48,10.7,37.3,0,24,0z"/>
<path class="st1" d="M24,0L24,0C10.7,0,0,10.7,0,24l0,0c0,13.3,10.7,24,24,24l0,0c13.3,0,24-10.7,24-24l0,0C48,10.7,37.3,0,24,0z"/>
<path class="st2" d="M27.5,31l-7-7l7-7"/>
</svg>
