<svg width="24" height="20" viewBox="0 0 24 20" fill="none" xmlns="http://www.w3.org/2000/svg">
<path fill-rule="evenodd" clip-rule="evenodd" d="M9.70711 1.70711L5.41421 6H18.5858L14.2929 1.70711C13.9024 1.31658 13.9024 0.683419 14.2929 0.292893C14.6834 -0.097631 15.3166 -0.097631 15.7071 0.292893L21.4142 6H23C23.5523 6 24 6.44772 24 7C24 7.55229 23.5523 8 23 8H21.8884C21.7788 8.95303 21.6893 9.82689 21.6082 10.6306L21.5765 10.9453L21.5765 10.9457C21.4845 11.8601 21.4011 12.6889 21.3093 13.428C21.109 15.0405 20.8534 16.3971 20.2611 17.4336C19.6183 18.5586 18.6421 19.2116 17.2753 19.569C15.9722 19.9098 14.248 20 12 20C9.752 20 8.02775 19.9098 6.72469 19.569C5.35793 19.2116 4.38172 18.5586 3.7389 17.4336C3.1466 16.3971 2.89098 15.0405 2.69066 13.428C2.59885 12.6889 2.51545 11.8599 2.42346 10.9454L2.39176 10.6306C2.31072 9.82689 2.22119 8.95303 2.11163 8H1C0.447715 8 0 7.55229 0 7C0 6.44772 0.447715 6 1 6H2.58579L8.29289 0.292893C8.68342 -0.097631 9.31658 -0.097631 9.70711 0.292893C10.0976 0.683419 10.0976 1.31658 9.70711 1.70711ZM4.1246 8H19.8754C19.7759 8.87921 19.6931 9.68807 19.6183 10.4299L19.5869 10.7422C19.4943 11.6624 19.4133 12.4669 19.3246 13.1814C19.1231 14.8032 18.8966 15.7904 18.5246 16.4414C18.2031 17.0039 17.7329 17.3821 16.7693 17.6341C15.742 17.9027 14.252 18 12 18C9.748 18 8.25796 17.9027 7.23067 17.6341C6.26707 17.3821 5.79685 17.0039 5.47539 16.4414C5.1034 15.7904 4.87688 14.8032 4.67541 13.1814C4.58666 12.467 4.50573 11.6626 4.41314 10.7425L4.41314 10.7424L4.38167 10.4299C4.30686 9.68807 4.22412 8.87921 4.1246 8ZM11 11C11 10.4477 10.5523 10 10 10C9.44771 10 9 10.4477 9 11V15C9 15.5523 9.44771 16 10 16C10.5523 16 11 15.5523 11 15V11ZM15 11C15 10.4477 14.5523 10 14 10C13.4477 10 13 10.4477 13 11V15C13 15.5523 13.4477 16 14 16C14.5523 16 15 15.5523 15 15V11Z" fill="#2655F8"/>
</svg>
