<svg width="25" height="25" viewBox="0 0 25 25" fill="none" xmlns="http://www.w3.org/2000/svg">
<path d="M11.4753 15.2765C10.7665 15.7758 10.0233 16.1957 9.25721 16.5135C8.78156 16.686 8.03514 16.1975 7.48631 15.8383C7.34913 15.7485 7.22429 15.6668 7.11911 15.6056L7.08459 15.5862C6.56763 15.2959 5.99358 14.9735 5.25542 15.1289C4.59227 15.2651 2.31697 17.0582 1.68812 17.6937C1.2765 18.1023 1.04783 18.5335 1.01353 18.9761C0.944925 20.6217 3.15163 22.4715 3.67758 22.7893C4.79808 23.6064 6.29589 23.5951 8.10241 22.778C10.0347 21.9949 12.3443 20.3493 14.5739 18.352C15.372 17.637 16.9047 16.1316 17.3409 15.6288C19.5933 13.1888 21.4913 10.5673 22.3831 8.44507C22.8062 7.54852 23.012 6.72006 23.012 5.9824C23.012 5.25608 22.8062 4.6092 22.406 4.05312C22.1659 3.63321 20.2336 1.34078 18.53 1.39752C18.1069 1.44291 17.6724 1.65854 17.2494 2.06709C16.6091 2.69127 14.7683 4.94966 14.6311 5.61924C14.4745 6.34063 14.7991 6.91007 15.0916 7.4231L15.1113 7.45773C15.1772 7.5716 15.2666 7.70668 15.3642 7.85436C15.7241 8.3984 16.1971 9.11337 16.0271 9.56859C15.6029 10.6127 14.9969 11.6341 14.2663 12.576C13.4555 13.5455 12.1842 14.7771 11.4753 15.2765Z" stroke="#2655F8" stroke-width="2"/>
</svg>
