<svg width="25" height="25" viewBox="0 0 25 25" fill="none" xmlns="http://www.w3.org/2000/svg">
<path d="M1.16816 12.2031C1.70198 14.9116 3.40377 17.1935 5.40112 19.0113C7.3926 20.8237 9.60308 22.1059 11.007 22.8217C11.6457 23.1473 12.3782 23.1473 13.017 22.8217C14.4209 22.1059 16.6314 20.8237 18.6228 19.0113C20.6202 17.1935 22.322 14.9116 22.8558 12.2031C23.2971 9.96397 22.8264 7.26543 21.1587 5.13851C19.5147 3.04178 16.6233 1.39648 12.012 1.39648C7.40068 1.39648 4.50921 3.04178 2.86521 5.13851C1.19753 7.26543 0.72684 9.96397 1.16816 12.2031Z" stroke="#2655F8" stroke-width="2" stroke-linecap="round" stroke-linejoin="round"/>
<circle r="3" transform="matrix(-1 0 0 1 12.012 10.3965)" stroke="#2655F8" stroke-width="2"/>
</svg>
