<svg width="74" height="55" viewBox="0 0 74 55" fill="none" xmlns="http://www.w3.org/2000/svg">
<g clip-path="url(#clip0_1315_13538)">
<path d="M18.3815 0.261058C13.2598 3.19901 8.97926 7.64154 6.23249 12.9479C4.85679 15.6011 3.4346 18.8096 4.04345 21.8757C4.60117 24.676 6.96218 26.2945 9.4905 27.0539C12.4929 27.9557 15.7788 27.8323 18.8648 27.5949C22.4807 27.3149 26.0594 26.6742 29.6613 26.228C31.3856 26.0144 33.1378 25.7913 34.876 25.8151C36.275 25.8293 37.7064 26.1331 38.6034 27.3291C40.2301 29.4887 39.0821 32.7304 37.9156 34.8093C36.275 37.7425 33.9976 40.2485 31.5855 42.5315C29.1733 44.8145 26.6264 46.8174 23.8797 48.583C18.6231 51.9671 11.8562 55.356 5.5214 53.3341C4.19682 52.9116 2.82576 52.1333 2.23086 50.7853C1.63596 49.4374 1.90553 48.0562 2.51902 46.8316C3.89937 44.0693 6.70191 42.2752 9.32319 40.913C12.2187 39.4132 15.3373 38.4165 18.4837 37.6333C21.6302 36.8502 24.7859 36.2949 27.9835 35.9389C40.9319 34.5008 54.1824 36.5417 66.1733 41.7057C67.6699 42.3512 69.1478 43.0441 70.6072 43.775C70.9976 43.9696 71.5739 43.8225 71.9225 43.5994C72.1781 43.4333 72.4802 43.0678 72.0852 42.859C66.099 39.717 59.6573 37.472 53.0716 36.0766C46.4859 34.6811 39.598 34.1258 32.8217 34.4866C26.0455 34.8473 19.2552 35.9864 12.8694 38.2741C9.68106 39.4179 6.6136 40.9557 3.9319 43.0678C1.82652 44.7243 -0.506609 47.5673 0.0975868 50.4958C0.757554 53.709 4.57328 54.6678 7.30146 54.9288C10.7361 55.2516 14.1986 54.4352 17.3822 53.1774C23.703 50.6856 29.5405 46.4709 34.3322 41.6202C36.6514 39.2708 38.8916 36.6604 40.2859 33.6132C41.3177 31.3635 41.9312 28.1123 39.9698 26.1711C38.8591 25.0747 37.2603 24.7756 35.773 24.7377C34.0069 24.695 32.2175 24.9085 30.4654 25.1126C26.7519 25.5493 23.0617 26.2328 19.3342 26.5413C16.2343 26.7976 12.7903 26.9589 9.83443 25.7819C8.61674 25.2977 7.48736 24.5716 6.70656 23.4799C5.75379 22.1509 5.55394 20.4565 5.77702 18.857C6.21855 15.7007 7.85917 12.6394 9.59275 10.0384C11.3263 7.43745 13.3899 5.1972 15.7741 3.2797C16.9361 2.34468 18.177 1.51882 19.4644 0.778404C19.7339 0.621776 19.9477 0.289536 19.6177 0.080699C19.2878 -0.128138 18.6929 0.0712064 18.3815 0.246819V0.261058Z" fill="#2E333F"/>
<path d="M59.3924 43.2814C63.7891 43.8035 68.1904 44.3256 72.6196 44.5202C72.9822 44.5344 74.5763 43.9696 73.7769 43.4713C71.6529 42.1423 69.5894 40.7137 67.6002 39.1806C65.611 37.6476 63.7891 35.9389 61.8464 34.3537C61.4002 33.9882 59.6201 34.5293 60.136 35.0893C61.865 36.9546 63.9378 38.5589 65.9456 40.0967C67.9534 41.6345 70.0634 43.0916 72.2199 44.4395L73.3772 43.3906C69.0921 43.2055 64.8302 42.7166 60.5729 42.2135C60.1128 42.1613 59.5551 42.242 59.2065 42.5885C58.9416 42.8495 58.9509 43.234 59.3878 43.2862L59.3924 43.2814Z" fill="#2E333F"/>
</g>
<defs>
<clipPath id="clip0_1315_13538">
<rect width="74" height="55" fill="white"/>
</clipPath>
</defs>
</svg>
