<svg width="57" height="50" viewBox="0 0 57 50" fill="none" xmlns="http://www.w3.org/2000/svg">
<circle cx="33.5" cy="23.5" r="23.5" fill="#CDD6FB"/>
<path d="M1.41667 33C1.41667 36.4675 1.60431 39.1573 2.0705 41.2549C2.5331 43.3365 3.25094 44.7471 4.25192 45.7481C5.25291 46.7491 6.66351 47.4669 8.74506 47.9295C10.8427 48.3957 13.5325 48.5833 17 48.5833C20.4675 48.5833 23.1573 48.3957 25.2549 47.9295C27.3365 47.4669 28.7471 46.7491 29.7481 45.7481C30.7491 44.7471 31.4669 43.3365 31.9295 41.2549C32.3957 39.1573 32.5833 36.4675 32.5833 33C32.5833 29.5325 32.3957 26.8427 31.9295 24.7451C31.4669 22.6635 30.7491 21.2529 29.7481 20.2519C28.7471 19.2509 27.3365 18.5331 25.2549 18.0705C23.1573 17.6043 20.4675 17.4167 17 17.4167C13.5325 17.4167 10.8427 17.6043 8.74506 18.0705C6.66351 18.5331 5.25291 19.2509 4.25192 20.2519C3.25094 21.2529 2.5331 22.6635 2.0705 24.7451C1.60431 26.8427 1.41667 29.5325 1.41667 33Z" stroke="#2655F8" stroke-width="2.83333" stroke-linecap="round" stroke-linejoin="round"/>
<path d="M17 24.5C17 24.5 17 30.1667 17 31.5833C17 33 17 33 18.4167 33C19.8333 33 25.5 33 25.5 33" stroke="#2655F8" stroke-width="2.83333" stroke-linecap="round" stroke-linejoin="round"/>
</svg>
