<svg width="54" height="47" viewBox="0 0 54 47" fill="none" xmlns="http://www.w3.org/2000/svg">
<circle cx="30.5" cy="23.5" r="23.5" fill="#CDD6FB"/>
<path d="M21.9583 21.1042C21.6354 17.6598 19.375 15.2917 15.5 15.2917C11.625 15.2917 9.36457 17.6598 9.04166 21.1042" stroke="#2655F8" stroke-width="2.58333" stroke-linecap="round" stroke-linejoin="round"/>
<path d="M1.29167 32.7292C1.29167 37.7854 2.01072 40.2523 3.76515 41.6412C4.67268 42.3597 5.97813 42.8904 7.91703 43.2316C9.85661 43.5728 12.3318 43.7083 15.5 43.7083C18.6682 43.7083 21.1434 43.5728 23.083 43.2316C25.0219 42.8904 26.3273 42.3597 27.2349 41.6412C28.9893 40.2523 29.7083 37.7854 29.7083 32.7292C29.7083 29.734 29.4594 27.6195 28.8628 26.0961C28.2129 24.4367 27.1208 23.3973 25.1208 22.727C23.0141 22.0211 19.9608 21.75 15.5 21.75C11.0392 21.75 7.98588 22.0211 5.87925 22.727C3.87915 23.3973 2.78712 24.4367 2.13723 26.0961C1.54056 27.6195 1.29167 29.734 1.29167 32.7292Z" stroke="#2655F8" stroke-width="2.58333" stroke-linecap="round" stroke-linejoin="round"/>
</svg>
