<svg width="61" height="47" viewBox="0 0 61 47" fill="none" xmlns="http://www.w3.org/2000/svg">
<circle cx="37.0334" cy="23.5" r="23.5" fill="#D7DFFE"/>
<path fill-rule="evenodd" clip-rule="evenodd" d="M28.2514 21.7721C23.9545 19.4188 21.1589 18 18.2667 18C15.3744 18 12.5789 19.4187 8.28198 21.7721L8.20376 21.815C6.07879 22.9787 4.38697 23.9053 3.23375 24.6948C2.64934 25.0949 2.12177 25.5133 1.73029 25.9689C1.33367 26.4305 0.981326 27.0432 0.981323 27.8V39.0001C0.981323 39.7733 1.60813 40.4001 2.38133 40.4001C3.15453 40.4001 3.78133 39.7733 3.78133 39.0001V31.2654C4.55183 31.7548 5.50313 32.2967 6.61378 32.9114C6.52507 34.0369 6.52518 35.491 6.52533 37.367L6.52534 37.6C6.52534 44.6 8.58931 46 18.2192 46C27.2453 46 30.008 44.6001 30.008 37.6C30.008 35.6139 30.008 34.0877 29.9099 32.9168C31.3047 32.1448 32.4487 31.4877 33.2996 30.9053C33.884 30.5052 34.4116 30.0868 34.803 29.6312C35.1996 29.1696 35.552 28.5568 35.552 27.8C35.552 27.0432 35.1996 26.4305 34.803 25.9689C34.4116 25.5133 33.884 25.0949 33.2996 24.6948C32.1464 23.9053 30.4546 22.9787 28.3296 21.815L28.2514 21.7721ZM27.1836 34.4094C23.4769 36.413 20.9122 37.6001 18.2667 37.6001C15.6201 37.6001 13.0545 36.4121 9.34544 34.4071C9.32568 35.2408 9.32535 36.2795 9.32535 37.6C9.32535 41.0605 9.90174 41.7998 10.3856 42.1444C10.7444 42.4 11.4206 42.6969 12.7596 42.9051C14.0898 43.1119 15.8517 43.2 18.2192 43.2C20.4279 43.2 22.1215 43.1125 23.4336 42.906C24.7514 42.6985 25.4959 42.3979 25.9343 42.1026C26.5435 41.6923 27.208 40.8617 27.208 37.6C27.208 36.2791 27.206 35.2411 27.1836 34.4094ZM3.85402 27.7937L3.84858 27.8L3.85401 27.8064C4.01029 27.9883 4.30437 28.2449 4.81549 28.5948C5.83921 29.2957 7.40657 30.1561 9.62699 31.3721C14.0943 33.8188 16.2288 34.8001 18.2667 34.8001C20.3045 34.8001 22.4391 33.8188 26.9064 31.3721C29.1268 30.1561 30.6941 29.2957 31.7178 28.5948C32.229 28.2449 32.523 27.9883 32.6793 27.8064L32.6847 27.8L32.6793 27.7937C32.523 27.6118 32.229 27.3552 31.7178 27.0052C30.6941 26.3044 29.1268 25.444 26.9064 24.2279C22.4391 21.7813 20.3045 20.8 18.2667 20.8C16.2288 20.8 14.0943 21.7813 9.62699 24.2279C7.40658 25.444 5.83921 26.3044 4.81549 27.0052C4.30437 27.3552 4.0103 27.6118 3.85402 27.7937ZM32.7723 27.9216C32.7723 27.9216 32.7716 27.9204 32.7706 27.9179C32.7719 27.9204 32.7724 27.9216 32.7723 27.9216ZM32.7706 27.6821C32.7716 27.6797 32.7723 27.6784 32.7723 27.6784C32.7724 27.6784 32.7719 27.6797 32.7706 27.6821ZM3.76269 27.6822C3.76142 27.6797 3.76091 27.6784 3.76098 27.6784C3.76104 27.6785 3.76168 27.6797 3.76269 27.6822Z" fill="#2655F8"/>
</svg>
