<svg width="17" height="17" viewBox="0 0 17 17" fill="none" xmlns="http://www.w3.org/2000/svg">
<path fill-rule="evenodd" clip-rule="evenodd" d="M8.70612 2.74512C7.07652 2.74512 6.87252 2.75192 6.23252 2.78112C5.59372 2.81032 5.15732 2.91192 4.77572 3.06032C4.37572 3.21072 4.01292 3.44672 3.71292 3.75232C3.4078 4.05197 3.17166 4.41452 3.02092 4.81472C2.87332 5.19632 2.77132 5.63312 2.74212 6.27192C2.71332 6.91152 2.70612 7.11512 2.70612 8.74512C2.70612 10.3751 2.71292 10.5787 2.74212 11.2187C2.77132 11.8575 2.87292 12.2939 3.02132 12.6755C3.17172 13.0755 3.40772 13.4383 3.71332 13.7383C4.01298 14.0434 4.37552 14.2796 4.77572 14.4303C5.15732 14.5783 5.59372 14.6799 6.23252 14.7091C6.87252 14.7383 7.07652 14.7451 8.70612 14.7451C10.3357 14.7451 10.5397 14.7383 11.1797 14.7091C11.8185 14.6799 12.2549 14.5783 12.6365 14.4299C13.0365 14.2795 13.3993 14.0435 13.6993 13.7379C14.0044 13.4383 14.2406 13.0757 14.3913 12.6755C14.5393 12.2939 14.6409 11.8575 14.6701 11.2187C14.6993 10.5787 14.7061 10.3747 14.7061 8.74512C14.7061 7.11552 14.6993 6.91152 14.6701 6.27152C14.6409 5.63272 14.5393 5.19632 14.3909 4.81472C14.2403 4.41434 14.0041 4.05165 13.6989 3.75192C13.3993 3.44681 13.0367 3.21066 12.6365 3.05992C12.2549 2.91232 11.8181 2.81032 11.1793 2.78112C10.5397 2.75232 10.3361 2.74512 8.70612 2.74512ZM8.70612 3.82632C10.3081 3.82632 10.4981 3.83232 11.1309 3.86112C11.7157 3.88792 12.0333 3.98512 12.2449 4.06792C12.5249 4.17632 12.7249 4.30672 12.9349 4.51632C13.1449 4.72632 13.2749 4.92632 13.3833 5.20632C13.4657 5.41792 13.5633 5.73552 13.5901 6.32032C13.6189 6.95312 13.6249 7.14312 13.6249 8.74512C13.6249 10.3471 13.6189 10.5371 13.5901 11.1699C13.5633 11.7547 13.4661 12.0723 13.3833 12.2839C13.2873 12.5445 13.1341 12.7803 12.9349 12.9739C12.7413 13.1731 12.5056 13.3263 12.2449 13.4223C12.0333 13.5047 11.7157 13.6023 11.1309 13.6291C10.4981 13.6579 10.3085 13.6639 8.70612 13.6639C7.10372 13.6639 6.91412 13.6579 6.28132 13.6291C5.69652 13.6023 5.37892 13.5051 5.16732 13.4223C4.9067 13.3263 4.67092 13.1731 4.47732 12.9739C4.27819 12.7803 4.12497 12.5445 4.02892 12.2839C3.94652 12.0723 3.84892 11.7547 3.82212 11.1699C3.79332 10.5371 3.78732 10.3471 3.78732 8.74512C3.78732 7.14312 3.79332 6.95312 3.82212 6.32032C3.84892 5.73552 3.94612 5.41792 4.02892 5.20632C4.13732 4.92632 4.26772 4.72632 4.47732 4.51632C4.67089 4.31713 4.90668 4.16391 5.16732 4.06792C5.37892 3.98552 5.69652 3.88792 6.28132 3.86112C6.91412 3.83232 7.10412 3.82632 8.70612 3.82632Z" fill="white"/>
<path fill-rule="evenodd" clip-rule="evenodd" d="M8.70619 10.747C8.44328 10.747 8.18295 10.6952 7.94006 10.5946C7.69717 10.494 7.47647 10.3465 7.29056 10.1606C7.10466 9.9747 6.9572 9.754 6.85659 9.51111C6.75598 9.26822 6.70419 9.00788 6.70419 8.74498C6.70419 8.48207 6.75598 8.22174 6.85659 7.97884C6.9572 7.73595 7.10466 7.51525 7.29056 7.32935C7.47647 7.14345 7.69717 6.99598 7.94006 6.89537C8.18295 6.79476 8.44328 6.74298 8.70619 6.74298C9.23715 6.74298 9.74637 6.9539 10.1218 7.32935C10.4973 7.7048 10.7082 8.21401 10.7082 8.74498C10.7082 9.27594 10.4973 9.78516 10.1218 10.1606C9.74637 10.5361 9.23715 10.747 8.70619 10.747ZM8.70619 5.66098C7.88826 5.66098 7.10384 5.9859 6.52547 6.56426C5.94711 7.14262 5.62219 7.92705 5.62219 8.74498C5.62219 9.5629 5.94711 10.3473 6.52547 10.9257C7.10384 11.5041 7.88826 11.829 8.70619 11.829C9.52412 11.829 10.3085 11.5041 10.8869 10.9257C11.4653 10.3473 11.7902 9.5629 11.7902 8.74498C11.7902 7.92705 11.4653 7.14262 10.8869 6.56426C10.3085 5.9859 9.52412 5.66098 8.70619 5.66098ZM12.6874 5.60498C12.6874 5.79832 12.6106 5.98374 12.4739 6.12046C12.3372 6.25717 12.1517 6.33398 11.9584 6.33398C11.765 6.33398 11.5796 6.25717 11.4429 6.12046C11.3062 5.98374 11.2294 5.79832 11.2294 5.60498C11.2294 5.41163 11.3062 5.22621 11.4429 5.0895C11.5796 4.95278 11.765 4.87598 11.9584 4.87598C12.1517 4.87598 12.3372 4.95278 12.4739 5.0895C12.6106 5.22621 12.6874 5.41163 12.6874 5.60498Z" fill="white"/>
</svg>
