<?xml version="1.0" encoding="utf-8"?>
<!-- Generator: Adobe Illustrator 26.2.1, SVG Export Plug-In . SVG Version: 6.00 Build 0)  -->
<svg version="1.1" id="Layer_1" xmlns="http://www.w3.org/2000/svg" xmlns:xlink="http://www.w3.org/1999/xlink" x="0px" y="0px"
	 viewBox="0 0 569 290" style="enable-background:new 0 0 569 290;" xml:space="preserve">
<style type="text/css">
	.st0{fill:#2655F8;}
</style>
<g>
	<path class="st0" d="M0,198.3c0.2-7.3,0.4-14.6,0.6-21.8c0.1-2.5,0-4.9,0-8c30.3,0,60.2,0,90.7,0c0-7-0.1-13.4,0-19.8
		c0.2-11.3,0-22.6,0.7-33.8c0.5-7.7,3.8-14.7,8.7-20.8c4.5-5.6,10.5-8.9,17.6-9.2c10-0.4,20-0.1,30.5-0.1c0,27.8,0,55.5,0,83.4
		c57.2,0,113.8,0,170.8,0c0-8.6,0-17.2,0-26.6c-1.7,0-3.5,0-5.2,0c-20.8,0-41.7,0.2-62.5,0.1c-10.7,0-20.8-2.9-30-8.3
		c-17.9-10.4-21.8-27-19.5-46c2.5-20.9,11.2-39.8,20.1-58.6c3.8-8.1,8-16.1,12.2-24c0.7-1.3,2.5-3,3.8-3c19.8-0.1,39.7,0,59.5,0
		c0.3,0,0.5,0.3,1.1,0.7c-0.6,1.4-1.2,2.9-1.8,4.4c-7.9,17.2-15.9,34.3-23.7,51.6c-2,4.3-3.7,8.9-4.7,13.6
		c-1.2,5.8,1.3,9.8,7.1,11.3c3.5,0.9,7.2,1.2,10.9,1.3c16.8,0.1,33.7,0,50.5,0c2.5,0,5,0,7.5,0.3c21.7,2.8,33.1,15.6,33.2,37.6
		c0.1,21.6,0.1,43.2,0,64.8c0,3.6-0.2,7.3-0.8,10.9c-2.7,15.8-12.3,25-28.3,27c-5.6,0.7-11.3,1-16.9,1c-101,0.1-202.1,0-303.1,0
		c-3.2,0-6.3-0.1-9.5-0.6C8.2,223.7,2.7,218,0.9,206.6c-0.2-1.1-0.6-2.2-0.9-3.3C0,201.6,0,200,0,198.3z"/>
	<path class="st0" d="M360.1,290c10.5-8.2,21.1-16.1,31.4-24.6c5-4.1,9.5-8.9,13.8-13.7c9.6-10.6,14.6-22.5,14.1-37.5
		c-0.9-29-0.5-58.1-0.1-87.2c0.1-7.2,1.4-14.6,3.8-21.4c4.8-13.4,17.1-21.1,31.3-21.1c8.1,0,16.3,0,24.7,0c0.1,1.4,0.3,2.3,0.3,3.2
		c-0.1,39.2-0.3,78.4-0.2,117.5c0.1,34.8-13.1,62.8-41.9,83.2c-0.5,0.4-0.9,1-1.3,1.4C410.8,290,385.4,290,360.1,290z"/>
	<path class="st0" d="M568.2,1.9c0,2.1,0,3.7,0,5.3c0,61.9,0,123.9-0.1,185.8c0,4.4-0.8,9-2,13.2c-3.2,10.9-10.6,18-22,18.9
		c-11,0.9-22.2,0.2-33.8,0.2c0-1.6,0-3.4,0-5.2c0-61.6-0.1-123.2,0.2-184.8c0-5.8,1.4-11.9,3.5-17.4c3.6-9.8,11.4-15.3,21.6-15.9
		C546.2,1.4,556.9,1.9,568.2,1.9z"/>
	<path class="st0" d="M46.5,55.6C63,55.8,76.2,69.1,76,85.6c-0.2,16.2-13.9,29.3-30.4,29.1c-16.1-0.2-29.4-13.7-29.2-29.8
		C16.5,68.4,29.9,55.5,46.5,55.6z"/>
	<path class="st0" d="M185.7,85c-5.8-9.5-4.9-18.9-3.1-28.2c3.2-16.5,11.2-31.1,18.1-46.2c3.2-7,6.9-8.5,14.5-8.7
		c3.1-0.1,6.7-0.1,9.8,0.1C211.8,29.8,198.9,57,185.7,85z"/>
</g>
</svg>
