<svg width="80" height="14" viewBox="0 0 80 14" fill="none" xmlns="http://www.w3.org/2000/svg">
<path d="M5.96047 2.09987C6.38553 1.24828 7.61366 1.24828 8.03872 2.09987L8.94361 3.91279C9.1124 4.25095 9.43868 4.48534 9.81611 4.53957L11.8395 4.83028C12.79 4.96684 13.1695 6.12175 12.4817 6.78462L11.0176 8.19577C10.7445 8.459 10.6198 8.83825 10.6843 9.20993L11.0299 11.2025C11.1923 12.1385 10.1987 12.8523 9.34861 12.4104L7.53883 11.4696C7.20124 11.2941 6.79794 11.2941 6.46036 11.4696L4.65058 12.4104C3.80046 12.8523 2.80688 12.1385 2.96924 11.2025L3.31488 9.20993C3.37935 8.83825 3.25472 8.459 2.98161 8.19577L1.51747 6.78462C0.829706 6.12175 1.20922 4.96684 2.15968 4.83028L4.18308 4.53957C4.56051 4.48534 4.88678 4.25095 5.05558 3.91279L5.96047 2.09987Z" fill="#2655F8"/>
<path d="M22.2954 2.09987C22.7205 1.24828 23.9486 1.24828 24.3737 2.09987L25.2786 3.91279C25.4474 4.25095 25.7736 4.48534 26.1511 4.53957L28.1745 4.83028C29.1249 4.96684 29.5044 6.12175 28.8167 6.78462L27.3525 8.19577C27.0794 8.459 26.9548 8.83825 27.0193 9.20993L27.3649 11.2025C27.5273 12.1385 26.5337 12.8523 25.6836 12.4104L23.8738 11.4696C23.5362 11.2941 23.1329 11.2941 22.7953 11.4696L20.9855 12.4104C20.1354 12.8523 19.1418 12.1385 19.3042 11.2025L19.6498 9.20993C19.7143 8.83825 19.5897 8.459 19.3166 8.19577L17.8524 6.78462C17.1647 6.12175 17.5442 4.96684 18.4946 4.83028L20.518 4.53957C20.8955 4.48534 21.2217 4.25095 21.3905 3.91279L22.2954 2.09987Z" fill="#2655F8"/>
<path d="M38.6268 2.09987C39.0519 1.24828 40.28 1.24828 40.7051 2.09987L41.61 3.91279C41.7788 4.25095 42.1051 4.48534 42.4825 4.53957L44.5059 4.83028C45.4563 4.96684 45.8359 6.12175 45.1481 6.78462L43.684 8.19577C43.4108 8.459 43.2862 8.83825 43.3507 9.20993L43.6963 11.2025C43.8587 12.1385 42.8651 12.8523 42.015 12.4104L40.2052 11.4696C39.8676 11.2941 39.4643 11.2941 39.1267 11.4696L37.317 12.4104C36.4668 12.8523 35.4733 12.1385 35.6356 11.2025L35.9813 9.20993C36.0457 8.83825 35.9211 8.459 35.648 8.19577L34.1838 6.78462C33.4961 6.12175 33.8756 4.96684 34.8261 4.83028L36.8495 4.53957C37.2269 4.48534 37.5532 4.25095 37.722 3.91279L38.6268 2.09987Z" fill="#2655F8"/>
<path d="M54.9603 2.09987C55.3854 1.24828 56.6135 1.24828 57.0386 2.09987L57.9435 3.91279C58.1123 4.25095 58.4386 4.48534 58.816 4.53957L60.8394 4.83028C61.7898 4.96684 62.1694 6.12175 61.4816 6.78462L60.0175 8.19577C59.7443 8.459 59.6197 8.83825 59.6842 9.20993L60.0298 11.2025C60.1922 12.1385 59.1986 12.8523 58.3485 12.4104L56.5387 11.4696C56.2011 11.2941 55.7978 11.2941 55.4602 11.4696L53.6505 12.4104C52.8003 12.8523 51.8068 12.1385 51.9691 11.2025L52.3148 9.20993C52.3792 8.83825 52.2546 8.459 51.9815 8.19577L50.5173 6.78462C49.8296 6.12175 50.2091 4.96684 51.1596 4.83028L53.183 4.53957C53.5604 4.48534 53.8867 4.25095 54.0555 3.91279L54.9603 2.09987Z" fill="#2655F8"/>
<path d="M71.2953 2.09987C71.7204 1.24828 72.9485 1.24828 73.3736 2.09987L74.2785 3.91279C74.4472 4.25095 74.7735 4.48534 75.1509 4.53957L77.1743 4.83028C78.1248 4.96684 78.5043 6.12175 77.8166 6.78462L76.3524 8.19577C76.0793 8.459 75.9547 8.83825 76.0191 9.20993L76.3648 11.2025C76.5271 12.1385 75.5336 12.8523 74.6834 12.4104L72.8737 11.4696C72.5361 11.2941 72.1328 11.2941 71.7952 11.4696L69.9854 12.4104C69.1353 12.8523 68.1417 12.1385 68.3041 11.2025L68.6497 9.20993C68.7142 8.83825 68.5896 8.459 68.3165 8.19577L66.8523 6.78462C66.1645 6.12175 66.5441 4.96684 67.4945 4.83028L69.5179 4.53957C69.8953 4.48534 70.2216 4.25095 70.3904 3.91279L71.2953 2.09987Z" fill="#2655F8"/>
</svg>
