<svg width="17" height="17" viewBox="0 0 17 17" fill="none" xmlns="http://www.w3.org/2000/svg">
<path fill-rule="evenodd" clip-rule="evenodd" d="M15.2268 8.74528C15.2268 12.4272 12.2421 15.4119 8.56016 15.4119C4.87826 15.4119 1.89349 12.4272 1.89349 8.74528C1.89349 5.06338 4.87826 2.07861 8.56016 2.07861C12.2421 2.07861 15.2268 5.06338 15.2268 8.74528ZM8.79905 7.00025C8.15062 7.26995 6.85467 7.82817 4.9112 8.67491C4.59561 8.80041 4.43029 8.92319 4.41524 9.04324C4.38981 9.24612 4.64388 9.32601 4.98986 9.4348C5.03692 9.4496 5.08568 9.46493 5.13567 9.48118C5.47606 9.59183 5.93394 9.72128 6.17197 9.72642C6.38789 9.73108 6.62888 9.64207 6.89495 9.45937C8.71079 8.23362 9.64814 7.61407 9.70699 7.60071C9.7485 7.59129 9.80604 7.57944 9.84502 7.61409C9.884 7.64874 9.88017 7.71435 9.87604 7.73196C9.85087 7.83926 8.85355 8.76645 8.33744 9.24628C8.17654 9.39586 8.06241 9.50197 8.03908 9.5262C7.98682 9.58048 7.93355 9.63183 7.88236 9.68118C7.56613 9.98603 7.32899 10.2146 7.89549 10.588C8.16772 10.7673 8.38556 10.9157 8.60289 11.0637C8.84024 11.2253 9.07697 11.3865 9.38327 11.5873C9.4613 11.6385 9.53583 11.6916 9.60842 11.7434C9.88463 11.9403 10.1328 12.1172 10.4394 12.089C10.6175 12.0726 10.8015 11.9051 10.895 11.4055C11.1158 10.2248 11.5499 7.66665 11.6503 6.61249C11.6591 6.52014 11.648 6.40194 11.6391 6.35005C11.6302 6.29816 11.6117 6.22424 11.5442 6.16951C11.4644 6.1047 11.3411 6.09103 11.2859 6.092C11.0352 6.09642 10.6505 6.23018 8.79905 7.00025Z" fill="white"/>
</svg>
