<svg width="25" height="26" viewBox="0 0 25 26" fill="none" xmlns="http://www.w3.org/2000/svg">
<path d="M1.17758 20.5833C1.17758 21.6467 1.30851 22.3905 1.58121 22.9371C1.83844 23.4526 2.25864 23.8657 3.0052 24.1983C3.77845 24.5427 4.8816 24.7903 6.45757 24.9463C8.02545 25.1015 10.0046 25.1613 12.5002 25.1613C14.9957 25.1613 16.9749 25.1015 18.5427 24.9463C20.1187 24.7903 21.2219 24.5427 21.9951 24.1983C22.7417 23.8657 23.1619 23.4526 23.4191 22.9371C23.6918 22.3905 23.8227 21.6467 23.8227 20.5833C23.8227 19.5199 23.6918 18.7761 23.4191 18.2296C23.1619 17.7141 22.7417 17.3009 21.9951 16.9684C21.2219 16.624 20.1187 16.3764 18.5427 16.2204C16.9749 16.0652 14.9957 16.0054 12.5002 16.0054C10.0046 16.0054 8.02545 16.0652 6.45757 16.2204C4.8816 16.3764 3.77845 16.624 3.0052 16.9684C2.25864 17.3009 1.83844 17.7141 1.58121 18.2296C1.30851 18.7761 1.17758 19.5199 1.17758 20.5833Z" stroke="white" stroke-width="1.67742" stroke-linecap="round" stroke-linejoin="round"/>
<path d="M6.70552 6.5C6.70552 9.61066 9.28375 12.1613 12.5002 12.1613C15.7167 12.1613 18.295 9.61066 18.295 6.5C18.295 3.38934 15.7167 0.83871 12.5002 0.83871C9.28375 0.83871 6.70552 3.38934 6.70552 6.5Z" stroke="white" stroke-width="1.67742"/>
</svg>
