<svg width="17" height="17" viewBox="0 0 17 17" fill="none" xmlns="http://www.w3.org/2000/svg">
<path d="M8.4388 2.93848C5.14538 2.93848 2.46512 5.52003 2.46396 8.69267C2.46318 9.70725 2.7388 10.6974 3.26138 11.5696L2.41364 14.5514L5.58125 13.7513C6.46236 14.2122 7.44209 14.4526 8.43647 14.4519H8.4388C11.7322 14.4519 14.4125 11.87 14.4136 8.69732C14.4144 7.16054 13.7935 5.71396 12.6651 4.62661C11.5371 3.53886 10.0371 2.93886 8.4388 2.93848ZM8.4388 13.4799H8.43686C7.54576 13.4799 6.6717 13.2492 5.90912 12.8133L5.72718 12.7096L3.84822 13.1842L4.34989 11.419L4.23183 11.2382C3.73592 10.4819 3.47193 9.59708 3.47234 8.69267C3.47351 6.05538 5.70163 3.91048 8.44073 3.91048C9.76692 3.91086 11.0138 4.40906 11.9517 5.31293C12.8896 6.2168 13.4056 7.41874 13.4049 8.69693C13.4037 11.3342 11.176 13.4799 8.43841 13.4799H8.4388ZM11.1628 9.89732C11.0134 9.8257 10.2794 9.4777 10.1424 9.42932C10.0058 9.3817 9.90628 9.35693 9.8068 9.50093C9.7077 9.64493 9.42125 9.96893 9.33454 10.0645C9.24705 10.1605 9.15996 10.1722 9.01054 10.1005C8.86112 10.0285 8.37996 9.8768 7.81015 9.38674C7.36615 9.00583 7.06654 8.53512 6.97944 8.39073C6.89234 8.24712 6.97015 8.16932 7.04486 8.0977C7.11183 8.03383 7.19428 7.93009 7.2686 7.84609C7.34293 7.76209 7.3677 7.70209 7.41802 7.60609C7.46757 7.51048 7.4428 7.42609 7.40525 7.35448C7.3677 7.28209 7.06963 6.57448 6.9446 6.28686C6.82383 6.00661 6.70073 6.04415 6.60899 6.03951C6.52189 6.03564 6.4228 6.03448 6.32254 6.03448C6.22383 6.03448 6.06163 6.07048 5.9246 6.21448C5.78796 6.35848 5.40202 6.70609 5.40202 7.4137C5.40202 8.1217 5.93699 8.80532 6.0117 8.90132C6.08641 8.99693 7.0646 10.4497 8.56228 11.0729C8.91841 11.2204 9.19634 11.3091 9.41351 11.3756C9.77118 11.4852 10.0967 11.4693 10.3538 11.4325C10.6402 11.3911 11.2371 11.0849 11.361 10.7493C11.4856 10.4137 11.4856 10.1257 11.4485 10.0657C11.4121 10.0057 11.3122 9.9697 11.1628 9.89732Z" fill="white"/>
</svg>
